<?xml version="1.0" encoding="UTF-8" standalone="no"?>
<svg
   xmlns:dc="http://purl.org/dc/elements/1.1/"
   xmlns:cc="http://creativecommons.org/ns#"
   xmlns:rdf="http://www.w3.org/1999/02/22-rdf-syntax-ns#"
   xmlns:svg="http://www.w3.org/2000/svg"
   xmlns="http://www.w3.org/2000/svg"
   xmlns:sodipodi="http://sodipodi.sourceforge.net/DTD/sodipodi-0.dtd"
   xmlns:inkscape="http://www.inkscape.org/namespaces/inkscape"
   viewBox="0 0 1000 500"
   aria-labelledby="title"
   aria-describedby="desc"
   role="img"
   version="1.1"
   id="svg10"
   sodipodi:docname="webhooks-banner.svg"
   inkscape:version="0.92.4 (5da689c313, 2019-01-14)"
   width="1000"
   height="500"
   inkscape:export-filename="C:\Users\Ahirin\Google Drive\AutomatorWP\webhooks\webhooks-banner.png"
   inkscape:export-xdpi="96"
   inkscape:export-ydpi="96">
  <metadata
     id="metadata16">
    <rdf:RDF>
      <cc:Work
         rdf:about="">
        <dc:format>image/svg+xml</dc:format>
        <dc:type
           rdf:resource="http://purl.org/dc/dcmitype/StillImage" />
        <dc:title>Ticket</dc:title>
      </cc:Work>
    </rdf:RDF>
  </metadata>
  <defs
     id="defs14" />
  <sodipodi:namedview
     pagecolor="#ffffff"
     bordercolor="#666666"
     borderopacity="1"
     objecttolerance="10"
     gridtolerance="10"
     guidetolerance="10"
     inkscape:pageopacity="0"
     inkscape:pageshadow="2"
     inkscape:window-width="1920"
     inkscape:window-height="1012"
     id="namedview12"
     showgrid="false"
     inkscape:zoom="0.7071068"
     inkscape:cx="605.70693"
     inkscape:cy="101.03741"
     inkscape:window-x="-8"
     inkscape:window-y="-8"
     inkscape:window-maximized="1"
     inkscape:current-layer="svg10"
     showguides="true"
     inkscape:guide-bbox="true"
     inkscape:measure-start="25.1142,38.8047"
     inkscape:measure-end="25.1142,42.6253"
     inkscape:lockguides="false"
     guidecolor="#fff100"
     guideopacity="0.49803922">
    <sodipodi:guide
       position="500,-0.07421875"
       orientation="1,0"
       id="guide4668"
       inkscape:locked="false" />
    <sodipodi:guide
       position="1000.2539,250.00781"
       orientation="0,1"
       id="guide4670"
       inkscape:locked="false" />
    <sodipodi:guide
       position="327.39044,179.25157"
       orientation="0,1"
       id="guide827"
       inkscape:locked="false" />
    <sodipodi:guide
       position="496.74999,80.499998"
       orientation="0,1"
       id="guide835"
       inkscape:locked="false" />
    <sodipodi:guide
       position="477.09821,420.06562"
       orientation="0,1"
       id="guide837"
       inkscape:locked="false" />
  </sodipodi:namedview>
  <title
     id="title2">Ticket</title>
  <desc
     id="desc4">A line styled icon from Orion Icon Library.</desc>
  <rect
     style="opacity:1;fill:#222222;fill-opacity:1;fill-rule:evenodd;stroke:none;stroke-width:1.99937022;stroke-linecap:square;stroke-linejoin:miter;stroke-miterlimit:10;stroke-dasharray:none;stroke-dashoffset:0;stroke-opacity:1;paint-order:normal"
     id="rect4658"
     width="1000"
     height="500"
     x="0"
     y="-5.9999998e-008"
     inkscape:export-xdpi="96"
     inkscape:export-ydpi="96" />
  <g
     id="g4610"
     transform="matrix(7.3781627,0,0,7.3781627,137.9422,-100.12763)"
     style="stroke-width:0.13553509"
     inkscape:export-xdpi="96"
     inkscape:export-ydpi="96" />
  <g
     id="g833"
     transform="matrix(1.5357023,0,0,1.5357023,71.534595,-134.02183)"
     style="stroke-width:0.65116787"
     inkscape:export-xdpi="96"
     inkscape:export-ydpi="96">
    <g
       inkscape:export-ydpi="96"
       inkscape:export-xdpi="96"
       style="fill:#ffffff;fill-opacity:1;stroke-width:0.11764738"
       id="g878"
       transform="matrix(5.5349123,0,0,5.5349123,215.21744,124.3196)">
      <path
         style="opacity:1;fill:#ffffff;fill-opacity:1;stroke-width:0.11764738"
         d="m 32.708131,35.147869 c 0.205926,-0.798008 0.315439,-1.634069 0.315438,-2.495276 10e-7,-5.511719 -4.488575,-10.000392 -10.000294,-10.000391 -1.386718,0 -2.67155,0.36336 -3.874674,0.875079 L 14.74246,15.558563 c 0.781252,-0.730468 1.281418,-1.753869 1.281418,-2.906215 2e-6,-2.20703 -1.793061,-4.0000279 -4.000091,-4.0000299 -0.34485,-2e-7 -0.679988,0.043834 -0.999359,0.1261186 C 9.2998244,9.22279 8.0234784,10.790151 8.0234774,12.652335 c 9e-7,2.207031 1.7933392,4.000104 4.0003696,4.000106 0.332032,2e-6 0.659893,-0.04705 0.968487,-0.125176 l 4.812844,8.71863 0.468536,0.875284 0.906009,-0.468924 c 1.144531,-0.632811 2.441625,-1.000139 3.84397,-1.000138 4.429686,-2e-6 8.000184,3.570375 8.000184,8.000062 0,4.429688 -3.570924,8.000041 -8.000618,8.000036 -2.160155,-10e-7 -4.120797,-0.862924 -5.562207,-2.249643 l -0.0075,0.0081 a 0.99329605,0.99329605 0 0 0 -1.175969,-0.136732 0.99329605,0.99329605 0 0 0 -0.363574,1.356875 0.99329605,0.99329605 0 0 0 0.164093,0.211931 0.99329605,0.99329605 0 0 0 0.115473,0.09605 c 1.786763,1.67168 4.195028,2.713624 6.830046,2.713623 4.650512,10e-7 8.57251,-3.195292 9.684528,-7.504539 z m -5.810727,-1.496334 c 0.08228,-0.31936 0.126161,-0.654098 0.126161,-0.998947 0,-2.20703 -1.793265,-4.000382 -4.000295,-4.000382 -1.859376,1e-6 -3.397963,1.277472 -3.843275,3.000128 l -11.1563613,1.12e-4 1.72e-4,1.000096 c -1.1e-6,4.429689 -3.5705712,7.999838 -8.0002648,7.999833 -4.4296872,-10e-7 -8.0001829,-3.570376 -8.0001836,-8.000064 -1e-6,-3.757813 2.5859736,-6.882794 6.062534,-7.749981 l -0.00241,-0.0099 a 1.0093765,1.0093765 0 0 0 0.7430062,-0.973385 1.0093765,1.0093765 0 0 0 -1.0096538,-1.009278 1.0093765,1.0093765 0 0 0 -0.2298392,0.0279 l -9.79e-4,-0.0041 c -4.3554704,1.085942 -7.5622249,5.043169 -7.5622243,9.718951 -3e-7,2.755859 1.1220577,5.255864 2.9330826,7.066852 1.8110282,1.810988 4.3109462,2.932837 7.06680518,2.932838 5.15624972,0 9.28501382,-3.98056 9.81235762,-9.000091 l 9.3437454,2.53e-4 c 0.445312,1.722656 1.984522,2.999748 3.843899,2.999748 1.862182,0 3.429413,-1.276033 3.873721,-3.000591 z M 21.687917,15.237557 c 0.222074,-0.827089 0.335968,-1.689695 0.335967,-2.585204 -5e-6,-5.511724 -4.488373,-10.0000382 -10.000092,-10.0000391 -0.861204,1.3e-6 -1.697701,0.1093338 -2.4957168,0.3152715 -4.309289,1.1120607 -7.5046016,5.0342314 -7.5046021,9.6847446 1e-6,3.289062 1.6330527,6.175606 4.0939862,7.999826 l -4.9376994,8.156321 c -0.039077,-0.01169 -0.081886,-0.01935 -0.1248537,-0.03108 -1.03123974,-0.277385 -2.1053668,-0.124891 -3.0311477,0.406358 -1.9101561,1.105468 -2.5705243,3.5586 -1.4689145,5.468771 0.1845693,0.320312 0.4074338,0.605099 0.6592131,0.85265 0.7553362,0.742655 1.7725244,1.147032 2.80963505,1.147034 0.67968855,0 1.37081025,-0.167838 1.99971945,-0.531116 C 2.9491911,35.585936 3.6209924,34.714928 3.8983369,33.683676 4.1757218,32.652437 4.0277633,31.57818 3.4926084,30.6524 3.3246409,30.363335 3.0937954,30.105322 2.8672346,29.870947 l 5.4374439,-8.937442 0.531412,-0.874903 -0.8750136,-0.49993 C 5.6056065,18.168047 4.0238779,15.59374 4.0238762,12.652337 4.023874,8.2226495 7.5938224,4.6526331 12.023513,4.6526346 c 4.429684,-1.6e-6 7.999974,3.5700278 7.999981,7.9997094 -1e-6,0.824217 -0.113274,1.597418 -0.343742,2.343511 l 8.52e-4,2.29e-4 a 1.0001877,1.0001877 0 0 0 0.36267,1.081769 1.0001877,1.0001877 0 0 0 1.399675,-0.205546 1.0001877,1.0001877 0 0 0 0.175991,-0.396088 c 0.02352,-0.07937 0.04751,-0.158625 0.069,-0.238658 z"
         id="path876"
         inkscape:connector-curvature="0" />
    </g>
    <g
       inkscape:export-ydpi="96"
       inkscape:export-xdpi="96"
       transform="matrix(5.5524056,0,0,5.5494301,215.01032,128.99823)"
       id="g882"
       style="opacity:1;fill:#4ceedf;fill-opacity:1;stroke-width:0.11730817">
      <path
         sodipodi:nodetypes="csscsccc"
         inkscape:connector-curvature="0"
         id="path880"
         d="m 14.74246,14.686114 c 0.781252,-0.730468 1.281418,-1.753869 1.281418,-2.906215 2e-6,-2.207029 -1.793061,-4.0000289 -4.000091,-4.0000309 -0.34485,-2e-7 -0.679988,0.043834 -0.999359,0.1261186 C 9.2998244,8.35034 8.0234784,9.9177029 8.0234774,11.779886 c 9e-7,2.207031 1.7933392,4.000104 4.0003696,4.000106 0.332032,2e-6 0.659893,-0.04705 0.968487,-0.125176 0.529104,-0.153394 1.32226,-0.582292 1.750126,-0.968702 z"
         style="fill:#4ceedf;fill-opacity:1;stroke-width:0.11730817" />
      <path
         sodipodi:nodetypes="cssccscc"
         inkscape:connector-curvature="0"
         id="path880-9"
         d="m 26.849919,32.720427 c 0.08228,-0.31936 0.126161,-0.6541 0.126161,-0.99895 0,-2.20703 -1.793265,-4.00038 -4.000295,-4.00038 -1.859375,0 -3.397963,1.27747 -3.843275,3.00013 0,0 -0.245538,0.83668 -1.66e-4,2.00003 0.445312,1.72266 1.984521,2.99975 3.843899,2.99975 1.862181,0 3.429412,-1.27603 3.873721,-3.00059 z"
         style="fill:#4ceedf;fill-opacity:1;stroke-width:0.11730817" />
      <path
         sodipodi:nodetypes="cccccccccccc"
         inkscape:connector-curvature="0"
         id="path880-9-7"
         d="m 1.2133457,27.890049 c -0.03908,-0.0117 -0.08189,-0.0194 -0.124853,-0.0311 -1.03123995,-0.27738 -2.105367,-0.12489 -3.031148,0.40636 -1.9101559,1.105471 -2.5705239,3.558601 -1.4689149,5.468771 0.18457,0.32031 0.407434,0.6051 0.6592129,0.85265 0.755337,0.74265 1.77252495,1.14703 2.80963605,1.14703 0.67968797,0 1.37080995,-0.16783 1.99971895,-0.53111 0.9257801,-0.53516 1.5975811,-1.40617 1.8749251,-2.43742 0.2773849,-1.03124 0.1294269,-2.1055 -0.405728,-3.03128 -0.167968,-0.28906 -0.398813,-0.547071 -0.625374,-0.781451 -0.556492,-0.52524 -1.0063711,-0.80473 -1.6874751,-1.06247 z"
         style="fill:#4ceedf;fill-opacity:1;stroke-width:0.11730817" />
    </g>
  </g>
  <text
     xml:space="preserve"
     style="font-style:normal;font-variant:normal;font-weight:normal;font-stretch:normal;font-size:53.33333206px;line-height:1.25;font-family:Nunito;-inkscape-font-specification:Nunito;letter-spacing:0px;word-spacing:0px;fill:#000000;fill-opacity:1;stroke:none"
     x="656.19507"
     y="403.12637"
     id="text835"><tspan
       sodipodi:role="line"
       id="tspan833"
       x="656.19507"
       y="449.32382" /></text>
</svg>
